<?xml version="1.0" standalone="no"?>
<!DOCTYPE svg PUBLIC "-//W3C//DTD SVG 1.1//EN" "http://www.w3.org/Graphics/SVG/1.1/DTD/svg11.dtd">
<svg xmlns:xlink="http://www.w3.org/1999/xlink" width="58.531ex" height="26.509ex" style="vertical-align: -12.671ex;" viewBox="0 -5958 25200.7 11413.7" xmlns="http://www.w3.org/2000/svg">
<defs>
<path stroke-width="10" id="E1-MJMAIN-45" d="M128 619Q121 626 117 628T101 631T58 634H25V680H597V676Q599 670 611 560T625 444V440H585V444Q584 447 582 465Q578 500 570 526T553 571T528 601T498 619T457 629T411 633T353 634Q266 634 251 633T233 622Q233 622 233 621Q232 619 232 497V376H286Q359 378 377 385Q413 401 416 469Q416 471 416 473V493H456V213H416V233Q415 268 408 288T383 317T349 328T297 330Q290 330 286 330H232V196V114Q232 57 237 52Q243 47 289 47H340H391Q428 47 452 50T505 62T552 92T584 146Q594 172 599 200T607 247T612 270V273H652V270Q651 267 632 137T610 3V0H25V46H58Q100 47 109 49T128 61V619Z"></path>
<path stroke-width="10" id="E1-MJMAIN-5B" d="M118 -250V750H255V710H158V-210H255V-250H118Z"></path>
<path stroke-width="10" id="E1-MJSZ1-5B" d="M202 -349V850H394V810H242V-309H394V-349H202Z"></path>
<path stroke-width="10" id="E1-MJMAIN-28" d="M94 250Q94 319 104 381T127 488T164 576T202 643T244 695T277 729T302 750H315H319Q333 750 333 741Q333 738 316 720T275 667T226 581T184 443T167 250T184 58T225 -81T274 -167T316 -220T333 -241Q333 -250 318 -250H315H302L274 -226Q180 -141 137 -14T94 250Z"></path>
<path stroke-width="10" id="E1-MJMATHI-79" d="M21 287Q21 301 36 335T84 406T158 442Q199 442 224 419T250 355Q248 336 247 334Q247 331 231 288T198 191T182 105Q182 62 196 45T238 27Q261 27 281 38T312 61T339 94Q339 95 344 114T358 173T377 247Q415 397 419 404Q432 431 462 431Q475 431 483 424T494 412T496 403Q496 390 447 193T391 -23Q363 -106 294 -155T156 -205Q111 -205 77 -183T43 -117Q43 -95 50 -80T69 -58T89 -48T106 -45Q150 -45 150 -87Q150 -107 138 -122T115 -142T102 -147L99 -148Q101 -153 118 -160T152 -167H160Q177 -167 186 -165Q219 -156 247 -127T290 -65T313 -9T321 21L315 17Q309 13 296 6T270 -6Q250 -11 231 -11Q185 -11 150 11T104 82Q103 89 103 113Q103 170 138 262T173 379Q173 380 173 381Q173 390 173 393T169 400T158 404H154Q131 404 112 385T82 344T65 302T57 280Q55 278 41 278H27Q21 284 21 287Z"></path>
<path stroke-width="10" id="E1-MJMAIN-2212" d="M84 237T84 250T98 270H679Q694 262 694 250T679 230H98Q84 237 84 250Z"></path>
<path stroke-width="10" id="E1-MJMATHI-66" d="M118 -162Q120 -162 124 -164T135 -167T147 -168Q160 -168 171 -155T187 -126Q197 -99 221 27T267 267T289 382V385H242Q195 385 192 387Q188 390 188 397L195 425Q197 430 203 430T250 431Q298 431 298 432Q298 434 307 482T319 540Q356 705 465 705Q502 703 526 683T550 630Q550 594 529 578T487 561Q443 561 443 603Q443 622 454 636T478 657L487 662Q471 668 457 668Q445 668 434 658T419 630Q412 601 403 552T387 469T380 433Q380 431 435 431Q480 431 487 430T498 424Q499 420 496 407T491 391Q489 386 482 386T428 385H372L349 263Q301 15 282 -47Q255 -132 212 -173Q175 -205 139 -205Q107 -205 81 -186T55 -132Q55 -95 76 -78T118 -61Q162 -61 162 -103Q162 -122 151 -136T127 -157L118 -162Z"></path>
<path stroke-width="10" id="E1-MJMAIN-5E" d="M112 560L249 694L257 686Q387 562 387 560L361 531Q359 532 303 581L250 627L195 580Q182 569 169 557T148 538L140 532Q138 530 125 546L112 560Z"></path>
<path stroke-width="10" id="E1-MJMAIN-29" d="M60 749L64 750Q69 750 74 750H86L114 726Q208 641 251 514T294 250Q294 182 284 119T261 12T224 -76T186 -143T145 -194T113 -227T90 -246Q87 -249 86 -250H74Q66 -250 63 -250T58 -247T55 -238Q56 -237 66 -225Q221 -64 221 250T66 725Q56 737 55 738Q55 746 60 749Z"></path>
<path stroke-width="10" id="E1-MJMAIN-32" d="M109 429Q82 429 66 447T50 491Q50 562 103 614T235 666Q326 666 387 610T449 465Q449 422 429 383T381 315T301 241Q265 210 201 149L142 93L218 92Q375 92 385 97Q392 99 409 186V189H449V186Q448 183 436 95T421 3V0H50V19V31Q50 38 56 46T86 81Q115 113 136 137Q145 147 170 174T204 211T233 244T261 278T284 308T305 340T320 369T333 401T340 431T343 464Q343 527 309 573T212 619Q179 619 154 602T119 569T109 550Q109 549 114 549Q132 549 151 535T170 489Q170 464 154 447T109 429Z"></path>
<path stroke-width="10" id="E1-MJMAIN-5D" d="M22 710V750H159V-250H22V-210H119V710H22Z"></path>
<path stroke-width="10" id="E1-MJSZ1-5D" d="M22 810V850H214V-349H22V-309H174V810H22Z"></path>
<path stroke-width="10" id="E1-MJMAIN-3D" d="M56 347Q56 360 70 367H707Q722 359 722 347Q722 336 708 328L390 327H72Q56 332 56 347ZM56 153Q56 168 72 173H708Q722 163 722 153Q722 140 707 133H70Q56 140 56 153Z"></path>
<path stroke-width="10" id="E1-MJMAIN-2B" d="M56 237T56 250T70 270H369V420L370 570Q380 583 389 583Q402 583 409 568V270H707Q722 262 722 250T707 230H409V-68Q401 -82 391 -82H389H387Q375 -82 369 -68V230H70Q56 237 56 250Z"></path>
<path stroke-width="10" id="E1-MJMAIN-56" d="M114 620Q113 621 110 624T107 627T103 630T98 632T91 634T80 635T67 636T48 637H19V683H28Q46 680 152 680Q273 680 294 683H305V637H284Q223 634 223 620Q223 618 313 372T404 126L490 358Q575 588 575 597Q575 616 554 626T508 637H503V683H512Q527 680 627 680Q718 680 724 683H730V637H723Q648 637 627 596Q627 595 515 291T401 -14Q396 -22 382 -22H374H367Q353 -22 348 -14Q346 -12 231 303Q114 617 114 620Z"></path>
<path stroke-width="10" id="E1-MJMAIN-61" d="M137 305T115 305T78 320T63 359Q63 394 97 421T218 448Q291 448 336 416T396 340Q401 326 401 309T402 194V124Q402 76 407 58T428 40Q443 40 448 56T453 109V145H493V106Q492 66 490 59Q481 29 455 12T400 -6T353 12T329 54V58L327 55Q325 52 322 49T314 40T302 29T287 17T269 6T247 -2T221 -8T190 -11Q130 -11 82 20T34 107Q34 128 41 147T68 188T116 225T194 253T304 268H318V290Q318 324 312 340Q290 411 215 411Q197 411 181 410T156 406T148 403Q170 388 170 359Q170 334 154 320ZM126 106Q126 75 150 51T209 26Q247 26 276 49T315 109Q317 116 318 175Q318 233 317 233Q309 233 296 232T251 223T193 203T147 166T126 106Z"></path>
<path stroke-width="10" id="E1-MJMAIN-72" d="M36 46H50Q89 46 97 60V68Q97 77 97 91T98 122T98 161T98 203Q98 234 98 269T98 328L97 351Q94 370 83 376T38 385H20V408Q20 431 22 431L32 432Q42 433 60 434T96 436Q112 437 131 438T160 441T171 442H174V373Q213 441 271 441H277Q322 441 343 419T364 373Q364 352 351 337T313 322Q288 322 276 338T263 372Q263 381 265 388T270 400T273 405Q271 407 250 401Q234 393 226 386Q179 341 179 207V154Q179 141 179 127T179 101T180 81T180 66V61Q181 59 183 57T188 54T193 51T200 49T207 48T216 47T225 47T235 46T245 46H276V0H267Q249 3 140 3Q37 3 28 0H20V46H36Z"></path>
<path stroke-width="10" id="E1-MJMATHI-3C3" d="M184 -11Q116 -11 74 34T31 147Q31 247 104 333T274 430Q275 431 414 431H552Q553 430 555 429T559 427T562 425T565 422T567 420T569 416T570 412T571 407T572 401Q572 357 507 357Q500 357 490 357T476 358H416L421 348Q439 310 439 263Q439 153 359 71T184 -11ZM361 278Q361 358 276 358Q152 358 115 184Q114 180 114 178Q106 141 106 117Q106 67 131 47T188 26Q242 26 287 73Q316 103 334 153T356 233T361 278Z"></path>
<path stroke-width="10" id="E1-MJMAIN-42" d="M131 622Q124 629 120 631T104 634T61 637H28V683H229H267H346Q423 683 459 678T531 651Q574 627 599 590T624 512Q624 461 583 419T476 360L466 357Q539 348 595 302T651 187Q651 119 600 67T469 3Q456 1 242 0H28V46H61Q103 47 112 49T131 61V622ZM511 513Q511 560 485 594T416 636Q415 636 403 636T371 636T333 637Q266 637 251 636T232 628Q229 624 229 499V374H312L396 375L406 377Q410 378 417 380T442 393T474 417T499 456T511 513ZM537 188Q537 239 509 282T430 336L329 337H229V200V116Q229 57 234 52Q240 47 334 47H383Q425 47 443 53Q486 67 511 104T537 188Z"></path>
<path stroke-width="10" id="E1-MJMAIN-69" d="M69 609Q69 637 87 653T131 669Q154 667 171 652T188 609Q188 579 171 564T129 549Q104 549 87 564T69 609ZM247 0Q232 3 143 3Q132 3 106 3T56 1L34 0H26V46H42Q70 46 91 49Q100 53 102 60T104 102V205V293Q104 345 102 359T88 378Q74 385 41 385H30V408Q30 431 32 431L42 432Q52 433 70 434T106 436Q123 437 142 438T171 441T182 442H185V62Q190 52 197 50T232 46H255V0H247Z"></path>
<path stroke-width="10" id="E1-MJMAIN-73" d="M295 316Q295 356 268 385T190 414Q154 414 128 401Q98 382 98 349Q97 344 98 336T114 312T157 287Q175 282 201 278T245 269T277 256Q294 248 310 236T342 195T359 133Q359 71 321 31T198 -10H190Q138 -10 94 26L86 19L77 10Q71 4 65 -1L54 -11H46H42Q39 -11 33 -5V74V132Q33 153 35 157T45 162H54Q66 162 70 158T75 146T82 119T101 77Q136 26 198 26Q295 26 295 104Q295 133 277 151Q257 175 194 187T111 210Q75 227 54 256T33 318Q33 357 50 384T93 424T143 442T187 447H198Q238 447 268 432L283 424L292 431Q302 440 314 448H322H326Q329 448 335 442V310L329 304H301Q295 310 295 316Z"></path>
</defs>
<g stroke="currentColor" fill="currentColor" stroke-width="0" transform="matrix(1 0 0 -1 0 0)">
<g transform="translate(167,0)">
<g transform="translate(-11,0)">
<g transform="translate(0,4623)">
 <use xlink:href="#E1-MJMAIN-45" x="0" y="0"></use>
 <use xlink:href="#E1-MJSZ1-5B" x="686" y="-1"></use>
 <use xlink:href="#E1-MJMAIN-28" x="1108" y="0"></use>
 <use xlink:href="#E1-MJMATHI-79" x="1502" y="0"></use>
 <use xlink:href="#E1-MJMAIN-2212" x="2226" y="0"></use>
<g transform="translate(3231,0)">
 <use xlink:href="#E1-MJMATHI-66" x="0" y="0"></use>
 <use xlink:href="#E1-MJMAIN-5E" x="231" y="301"></use>
</g>
<g transform="translate(3967,0)">
 <use xlink:href="#E1-MJMAIN-29" x="0" y="0"></use>
 <use transform="scale(0.707)" xlink:href="#E1-MJMAIN-32" x="557" y="583"></use>
</g>
 <use xlink:href="#E1-MJSZ1-5D" x="4818" y="-1"></use>
</g>
</g>
<g transform="translate(5230,0)">
<g transform="translate(0,4623)">
 <use xlink:href="#E1-MJMAIN-3D" x="277" y="0"></use>
 <use xlink:href="#E1-MJMAIN-45" x="1338" y="0"></use>
 <use xlink:href="#E1-MJMAIN-5B" x="2024" y="0"></use>
<g transform="translate(2307,0)">
 <use xlink:href="#E1-MJMATHI-79" x="0" y="0"></use>
 <use transform="scale(0.707)" xlink:href="#E1-MJMAIN-32" x="712" y="583"></use>
</g>
 <use xlink:href="#E1-MJMAIN-2B" x="3491" y="0"></use>
<g transform="translate(4496,0)">
 <use xlink:href="#E1-MJMATHI-66" x="0" y="0"></use>
 <use xlink:href="#E1-MJMAIN-5E" x="231" y="301"></use>
 <use transform="scale(0.707)" xlink:href="#E1-MJMAIN-32" x="1040" y="1036"></use>
</g>
 <use xlink:href="#E1-MJMAIN-2212" x="5911" y="0"></use>
 <use xlink:href="#E1-MJMAIN-32" x="6916" y="0"></use>
 <use xlink:href="#E1-MJMATHI-79" x="7421" y="0"></use>
<g transform="translate(7923,0)">
 <use xlink:href="#E1-MJMATHI-66" x="0" y="0"></use>
 <use xlink:href="#E1-MJMAIN-5E" x="231" y="301"></use>
</g>
 <use xlink:href="#E1-MJMAIN-5D" x="8659" y="0"></use>
</g>
<g transform="translate(0,2753)">
 <use xlink:href="#E1-MJMAIN-3D" x="277" y="0"></use>
 <use xlink:href="#E1-MJMAIN-45" x="1338" y="0"></use>
 <use xlink:href="#E1-MJMAIN-5B" x="2024" y="0"></use>
<g transform="translate(2307,0)">
 <use xlink:href="#E1-MJMATHI-79" x="0" y="0"></use>
 <use transform="scale(0.707)" xlink:href="#E1-MJMAIN-32" x="712" y="583"></use>
</g>
 <use xlink:href="#E1-MJMAIN-5D" x="3268" y="0"></use>
 <use xlink:href="#E1-MJMAIN-2B" x="3774" y="0"></use>
 <use xlink:href="#E1-MJMAIN-45" x="4779" y="0"></use>
 <use xlink:href="#E1-MJMAIN-5B" x="5465" y="0"></use>
<g transform="translate(5748,0)">
 <use xlink:href="#E1-MJMATHI-66" x="0" y="0"></use>
 <use xlink:href="#E1-MJMAIN-5E" x="231" y="301"></use>
 <use transform="scale(0.707)" xlink:href="#E1-MJMAIN-32" x="1040" y="1036"></use>
</g>
 <use xlink:href="#E1-MJMAIN-5D" x="6941" y="0"></use>
 <use xlink:href="#E1-MJMAIN-2212" x="7446" y="0"></use>
 <use xlink:href="#E1-MJMAIN-45" x="8451" y="0"></use>
 <use xlink:href="#E1-MJMAIN-5B" x="9137" y="0"></use>
 <use xlink:href="#E1-MJMAIN-32" x="9420" y="0"></use>
 <use xlink:href="#E1-MJMATHI-79" x="9925" y="0"></use>
<g transform="translate(10427,0)">
 <use xlink:href="#E1-MJMATHI-66" x="0" y="0"></use>
 <use xlink:href="#E1-MJMAIN-5E" x="231" y="301"></use>
</g>
 <use xlink:href="#E1-MJMAIN-5D" x="11163" y="0"></use>
</g>
<g transform="translate(0,1188)">
 <use xlink:href="#E1-MJMAIN-3D" x="277" y="0"></use>
<g transform="translate(1338,0)">
 <use xlink:href="#E1-MJMAIN-56" x="0" y="0"></use>
 <use xlink:href="#E1-MJMAIN-61" x="755" y="0"></use>
 <use xlink:href="#E1-MJMAIN-72" x="1260" y="0"></use>
</g>
 <use xlink:href="#E1-MJMAIN-5B" x="2995" y="0"></use>
 <use xlink:href="#E1-MJMATHI-79" x="3278" y="0"></use>
 <use xlink:href="#E1-MJMAIN-5D" x="3780" y="0"></use>
 <use xlink:href="#E1-MJMAIN-2B" x="4285" y="0"></use>
 <use xlink:href="#E1-MJMAIN-45" x="5291" y="0"></use>
 <use xlink:href="#E1-MJMAIN-5B" x="5977" y="0"></use>
 <use xlink:href="#E1-MJMATHI-79" x="6260" y="0"></use>
<g transform="translate(6762,0)">
 <use xlink:href="#E1-MJMAIN-5D" x="0" y="0"></use>
 <use transform="scale(0.707)" xlink:href="#E1-MJMAIN-32" x="400" y="583"></use>
</g>
 <use xlink:href="#E1-MJMAIN-2B" x="7724" y="0"></use>
<g transform="translate(8729,0)">
 <use xlink:href="#E1-MJMAIN-56" x="0" y="0"></use>
 <use xlink:href="#E1-MJMAIN-61" x="755" y="0"></use>
 <use xlink:href="#E1-MJMAIN-72" x="1260" y="0"></use>
</g>
 <use xlink:href="#E1-MJMAIN-5B" x="10386" y="0"></use>
<g transform="translate(10669,0)">
 <use xlink:href="#E1-MJMATHI-66" x="0" y="0"></use>
 <use xlink:href="#E1-MJMAIN-5E" x="231" y="301"></use>
</g>
 <use xlink:href="#E1-MJMAIN-5D" x="11405" y="0"></use>
 <use xlink:href="#E1-MJMAIN-2B" x="11910" y="0"></use>
 <use xlink:href="#E1-MJMAIN-45" x="12916" y="0"></use>
 <use xlink:href="#E1-MJMAIN-5B" x="13602" y="0"></use>
<g transform="translate(13885,0)">
 <use xlink:href="#E1-MJMATHI-66" x="0" y="0"></use>
 <use xlink:href="#E1-MJMAIN-5E" x="231" y="301"></use>
</g>
<g transform="translate(14621,0)">
 <use xlink:href="#E1-MJMAIN-5D" x="0" y="0"></use>
 <use transform="scale(0.707)" xlink:href="#E1-MJMAIN-32" x="400" y="583"></use>
</g>
 <use xlink:href="#E1-MJMAIN-2212" x="15583" y="0"></use>
 <use xlink:href="#E1-MJMAIN-32" x="16588" y="0"></use>
 <use xlink:href="#E1-MJMATHI-66" x="17093" y="0"></use>
 <use xlink:href="#E1-MJMAIN-45" x="17648" y="0"></use>
 <use xlink:href="#E1-MJMAIN-5B" x="18334" y="0"></use>
<g transform="translate(18617,0)">
 <use xlink:href="#E1-MJMATHI-66" x="0" y="0"></use>
 <use xlink:href="#E1-MJMAIN-5E" x="231" y="301"></use>
</g>
 <use xlink:href="#E1-MJMAIN-5D" x="19353" y="0"></use>
</g>
<g transform="translate(0,-378)">
 <use xlink:href="#E1-MJMAIN-3D" x="277" y="0"></use>
<g transform="translate(1338,0)">
 <use xlink:href="#E1-MJMAIN-56" x="0" y="0"></use>
 <use xlink:href="#E1-MJMAIN-61" x="755" y="0"></use>
 <use xlink:href="#E1-MJMAIN-72" x="1260" y="0"></use>
</g>
 <use xlink:href="#E1-MJMAIN-5B" x="2995" y="0"></use>
 <use xlink:href="#E1-MJMATHI-79" x="3278" y="0"></use>
 <use xlink:href="#E1-MJMAIN-5D" x="3780" y="0"></use>
 <use xlink:href="#E1-MJMAIN-2B" x="4285" y="0"></use>
<g transform="translate(5291,0)">
 <use xlink:href="#E1-MJMAIN-56" x="0" y="0"></use>
 <use xlink:href="#E1-MJMAIN-61" x="755" y="0"></use>
 <use xlink:href="#E1-MJMAIN-72" x="1260" y="0"></use>
</g>
 <use xlink:href="#E1-MJMAIN-5B" x="6948" y="0"></use>
<g transform="translate(7231,0)">
 <use xlink:href="#E1-MJMATHI-66" x="0" y="0"></use>
 <use xlink:href="#E1-MJMAIN-5E" x="231" y="301"></use>
</g>
 <use xlink:href="#E1-MJMAIN-5D" x="7967" y="0"></use>
 <use xlink:href="#E1-MJMAIN-2B" x="8472" y="0"></use>
 <use xlink:href="#E1-MJMAIN-28" x="9477" y="0"></use>
<g transform="translate(9871,0)">
 <use xlink:href="#E1-MJMATHI-66" x="0" y="0"></use>
 <use transform="scale(0.707)" xlink:href="#E1-MJMAIN-32" x="810" y="583"></use>
</g>
 <use xlink:href="#E1-MJMAIN-2212" x="11123" y="0"></use>
 <use xlink:href="#E1-MJMAIN-32" x="12129" y="0"></use>
 <use xlink:href="#E1-MJMATHI-66" x="12634" y="0"></use>
 <use xlink:href="#E1-MJMAIN-45" x="13189" y="0"></use>
 <use xlink:href="#E1-MJMAIN-5B" x="13875" y="0"></use>
<g transform="translate(14158,0)">
 <use xlink:href="#E1-MJMATHI-66" x="0" y="0"></use>
 <use xlink:href="#E1-MJMAIN-5E" x="231" y="301"></use>
</g>
 <use xlink:href="#E1-MJMAIN-5D" x="14894" y="0"></use>
 <use xlink:href="#E1-MJMAIN-2B" x="15399" y="0"></use>
 <use xlink:href="#E1-MJMAIN-45" x="16404" y="0"></use>
 <use xlink:href="#E1-MJMAIN-5B" x="17090" y="0"></use>
<g transform="translate(17373,0)">
 <use xlink:href="#E1-MJMATHI-66" x="0" y="0"></use>
 <use xlink:href="#E1-MJMAIN-5E" x="231" y="301"></use>
</g>
<g transform="translate(18109,0)">
 <use xlink:href="#E1-MJMAIN-5D" x="0" y="0"></use>
 <use transform="scale(0.707)" xlink:href="#E1-MJMAIN-32" x="400" y="583"></use>
</g>
 <use xlink:href="#E1-MJMAIN-29" x="18849" y="0"></use>
</g>
<g transform="translate(0,-1944)">
 <use xlink:href="#E1-MJMAIN-3D" x="277" y="0"></use>
<g transform="translate(1338,0)">
 <use xlink:href="#E1-MJMAIN-56" x="0" y="0"></use>
 <use xlink:href="#E1-MJMAIN-61" x="755" y="0"></use>
 <use xlink:href="#E1-MJMAIN-72" x="1260" y="0"></use>
</g>
 <use xlink:href="#E1-MJMAIN-5B" x="2995" y="0"></use>
 <use xlink:href="#E1-MJMATHI-79" x="3278" y="0"></use>
 <use xlink:href="#E1-MJMAIN-5D" x="3780" y="0"></use>
 <use xlink:href="#E1-MJMAIN-2B" x="4285" y="0"></use>
<g transform="translate(5291,0)">
 <use xlink:href="#E1-MJMAIN-56" x="0" y="0"></use>
 <use xlink:href="#E1-MJMAIN-61" x="755" y="0"></use>
 <use xlink:href="#E1-MJMAIN-72" x="1260" y="0"></use>
</g>
 <use xlink:href="#E1-MJMAIN-5B" x="6948" y="0"></use>
<g transform="translate(7231,0)">
 <use xlink:href="#E1-MJMATHI-66" x="0" y="0"></use>
 <use xlink:href="#E1-MJMAIN-5E" x="231" y="301"></use>
</g>
 <use xlink:href="#E1-MJMAIN-5D" x="7967" y="0"></use>
 <use xlink:href="#E1-MJMAIN-2B" x="8472" y="0"></use>
 <use xlink:href="#E1-MJMAIN-28" x="9477" y="0"></use>
 <use xlink:href="#E1-MJMATHI-66" x="9871" y="0"></use>
 <use xlink:href="#E1-MJMAIN-2212" x="10648" y="0"></use>
 <use xlink:href="#E1-MJMAIN-45" x="11653" y="0"></use>
 <use xlink:href="#E1-MJMAIN-5B" x="12339" y="0"></use>
<g transform="translate(12622,0)">
 <use xlink:href="#E1-MJMATHI-66" x="0" y="0"></use>
 <use xlink:href="#E1-MJMAIN-5E" x="231" y="301"></use>
</g>
 <use xlink:href="#E1-MJMAIN-5D" x="13358" y="0"></use>
<g transform="translate(13641,0)">
 <use xlink:href="#E1-MJMAIN-29" x="0" y="0"></use>
 <use transform="scale(0.707)" xlink:href="#E1-MJMAIN-32" x="557" y="583"></use>
</g>
</g>
<g transform="translate(0,-3509)">
 <use xlink:href="#E1-MJMAIN-3D" x="277" y="0"></use>
<g transform="translate(1338,0)">
 <use xlink:href="#E1-MJMAIN-56" x="0" y="0"></use>
 <use xlink:href="#E1-MJMAIN-61" x="755" y="0"></use>
 <use xlink:href="#E1-MJMAIN-72" x="1260" y="0"></use>
</g>
 <use xlink:href="#E1-MJMAIN-5B" x="2995" y="0"></use>
 <use xlink:href="#E1-MJMATHI-79" x="3278" y="0"></use>
 <use xlink:href="#E1-MJMAIN-5D" x="3780" y="0"></use>
 <use xlink:href="#E1-MJMAIN-2B" x="4285" y="0"></use>
<g transform="translate(5291,0)">
 <use xlink:href="#E1-MJMAIN-56" x="0" y="0"></use>
 <use xlink:href="#E1-MJMAIN-61" x="755" y="0"></use>
 <use xlink:href="#E1-MJMAIN-72" x="1260" y="0"></use>
</g>
 <use xlink:href="#E1-MJMAIN-5B" x="6948" y="0"></use>
<g transform="translate(7231,0)">
 <use xlink:href="#E1-MJMATHI-66" x="0" y="0"></use>
 <use xlink:href="#E1-MJMAIN-5E" x="231" y="301"></use>
</g>
 <use xlink:href="#E1-MJMAIN-5D" x="7967" y="0"></use>
 <use xlink:href="#E1-MJMAIN-2B" x="8472" y="0"></use>
 <use xlink:href="#E1-MJMAIN-45" x="9477" y="0"></use>
 <use xlink:href="#E1-MJMAIN-5B" x="10163" y="0"></use>
 <use xlink:href="#E1-MJMATHI-66" x="10446" y="0"></use>
 <use xlink:href="#E1-MJMAIN-2212" x="11223" y="0"></use>
<g transform="translate(12228,0)">
 <use xlink:href="#E1-MJMATHI-66" x="0" y="0"></use>
 <use xlink:href="#E1-MJMAIN-5E" x="231" y="301"></use>
</g>
<g transform="translate(12964,0)">
 <use xlink:href="#E1-MJMAIN-5D" x="0" y="0"></use>
 <use transform="scale(0.707)" xlink:href="#E1-MJMAIN-32" x="400" y="583"></use>
</g>
</g>
<g transform="translate(0,-5075)">
 <use xlink:href="#E1-MJMAIN-3D" x="277" y="0"></use>
<g transform="translate(1338,0)">
 <use xlink:href="#E1-MJMATHI-3C3" x="0" y="0"></use>
 <use transform="scale(0.707)" xlink:href="#E1-MJMAIN-32" x="816" y="583"></use>
</g>
 <use xlink:href="#E1-MJMAIN-2B" x="2595" y="0"></use>
<g transform="translate(3600,0)">
 <use xlink:href="#E1-MJMAIN-56" x="0" y="0"></use>
 <use xlink:href="#E1-MJMAIN-61" x="755" y="0"></use>
 <use xlink:href="#E1-MJMAIN-72" x="1260" y="0"></use>
</g>
 <use xlink:href="#E1-MJMAIN-5B" x="5257" y="0"></use>
<g transform="translate(5540,0)">
 <use xlink:href="#E1-MJMATHI-66" x="0" y="0"></use>
 <use xlink:href="#E1-MJMAIN-5E" x="231" y="301"></use>
</g>
 <use xlink:href="#E1-MJMAIN-5D" x="6276" y="0"></use>
 <use xlink:href="#E1-MJMAIN-2B" x="6781" y="0"></use>
<g transform="translate(7786,0)">
 <use xlink:href="#E1-MJMAIN-42" x="0" y="0"></use>
 <use xlink:href="#E1-MJMAIN-69" x="713" y="0"></use>
 <use xlink:href="#E1-MJMAIN-61" x="996" y="0"></use>
 <use xlink:href="#E1-MJMAIN-73" x="1501" y="0"></use>
</g>
 <use xlink:href="#E1-MJMAIN-5B" x="9686" y="0"></use>
<g transform="translate(9969,0)">
 <use xlink:href="#E1-MJMATHI-66" x="0" y="0"></use>
 <use xlink:href="#E1-MJMAIN-5E" x="231" y="301"></use>
</g>
<g transform="translate(10705,0)">
 <use xlink:href="#E1-MJMAIN-5D" x="0" y="0"></use>
 <use transform="scale(0.707)" xlink:href="#E1-MJMAIN-32" x="400" y="583"></use>
</g>
</g>
</g>
</g>
</g>
</svg>